<?xml version="1.0" standalone="no"?>
<!DOCTYPE svg PUBLIC "-//W3C//DTD SVG 20010904//EN"
 "http://www.w3.org/TR/2001/REC-SVG-20010904/DTD/svg10.dtd">
<svg version="1.0" xmlns="http://www.w3.org/2000/svg"
 width="1024.000000pt" height="1024.000000pt" viewBox="0 0 1024.000000 1024.000000"
 preserveAspectRatio="xMidYMid meet">
<metadata>
Created by potrace 1.11, written by Peter Selinger 2001-2013
</metadata>
<g transform="translate(0.000000,1024.000000) scale(0.100000,-0.100000)"
fill="#000000" stroke="none">
<path d="M5549 9136 c-2 -2 -35 -7 -74 -10 -295 -28 -428 -65 -665 -183 -283
-141 -541 -324 -769 -546 -91 -89 -185 -193 -226 -251 -11 -16 -25 -33 -30
-40 -6 -6 -40 -54 -77 -106 -126 -182 -201 -247 -270 -234 -18 4 -60 19 -93
35 -129 61 -285 84 -570 84 -433 0 -587 -44 -852 -242 -107 -79 -284 -258
-369 -373 -59 -79 -156 -239 -156 -257 0 -4 -6 -19 -13 -33 -7 -14 -25 -64
-40 -113 -58 -185 -155 -297 -408 -469 -183 -124 -244 -173 -363 -293 -291
-292 -491 -700 -554 -1130 -18 -123 -21 -394 -4 -510 85 -604 542 -1244 1089
-1527 84 -43 207 -92 258 -102 68 -14 138 -26 187 -31 30 -4 66 -8 80 -10 56
-8 265 -22 465 -30 316 -14 1000 -19 1235 -10 380 14 529 35 550 76 16 29 10
150 -9 189 -9 19 -31 44 -49 56 -44 30 -99 42 -277 59 -27 3 -225 7 -440 10
-500 6 -894 14 -970 20 -665 49 -943 152 -1255 467 -216 217 -353 471 -422
776 -18 79 -22 130 -22 277 -1 99 3 205 7 235 4 30 9 66 11 80 8 54 51 199 83
280 105 262 289 501 517 669 52 40 167 109 254 155 181 95 239 132 293 190 62
65 83 118 124 301 55 249 136 418 270 563 158 171 354 266 615 298 65 9 242 8
285 0 17 -3 49 -8 73 -11 114 -15 241 -70 366 -160 122 -88 189 -119 261 -119
118 -1 186 71 320 334 115 229 235 396 401 565 328 332 787 568 1243 641 18 3
43 8 55 10 93 19 415 26 546 12 523 -55 966 -255 1321 -595 325 -312 549 -714
668 -1200 16 -65 34 -147 40 -183 6 -36 13 -76 16 -89 2 -13 7 -48 10 -76 2
-29 7 -68 10 -86 2 -19 7 -61 10 -94 3 -33 8 -73 10 -90 7 -54 15 -119 24
-214 10 -96 13 -103 34 -107 81 -14 258 -45 277 -49 14 -3 51 -10 83 -16 76
-13 215 -59 302 -98 69 -32 219 -119 257 -149 54 -44 160 -135 181 -156 63
-63 187 -217 187 -232 0 -4 6 -15 14 -23 63 -70 188 -388 212 -537 3 -20 8
-46 10 -58 6 -26 6 -223 0 -252 -2 -12 -7 -37 -10 -55 -16 -93 -46 -194 -97
-315 -129 -310 -265 -499 -449 -624 -66 -45 -151 -89 -230 -120 -52 -20 -249
-74 -308 -84 -70 -12 -162 -26 -217 -31 -33 -4 -74 -8 -92 -10 -153 -18 -314
-24 -733 -30 -515 -6 -915 -15 -970 -20 -130 -13 -157 -15 -180 -20 -146 -27
-196 -84 -192 -217 3 -57 17 -85 49 -92 89 -18 226 -31 458 -42 417 -19 1412
-19 1670 1 122 9 209 17 226 20 9 2 39 6 67 10 29 3 65 10 82 15 16 5 30 7 30
5 0 -3 46 12 103 31 349 122 678 377 895 695 139 205 261 515 288 734 3 22 9
67 14 100 9 64 6 360 -4 410 -4 17 -11 55 -17 85 -6 30 -12 65 -15 78 -30 148
-170 466 -278 631 -178 271 -433 507 -681 629 -135 67 -202 89 -355 118 -56
11 -122 37 -151 61 -62 53 -82 128 -124 468 -2 22 -7 51 -10 65 -2 14 -7 41
-10 60 -18 109 -98 377 -148 494 -25 59 -151 312 -169 341 -7 10 -37 58 -67
105 -149 237 -414 533 -626 698 -156 121 -330 235 -463 302 -175 89 -487 163
-812 195 -36 3 -83 8 -105 11 -46 6 -641 15 -646 10z"/>
<path d="M5034 5563 c-170 -146 -626 -598 -784 -779 -140 -161 -144 -165 -206
-252 -132 -184 -153 -301 -59 -332 58 -19 118 -6 204 46 145 88 255 185 657
583 l34 33 1 -1123 c0 -2006 8 -2283 66 -2493 26 -93 115 -165 189 -153 43 7
120 60 138 96 19 36 43 139 51 221 3 36 8 85 10 110 19 195 24 633 25 2113 0
1189 1 1226 18 1210 10 -10 108 -106 218 -213 217 -213 315 -297 425 -365 165
-101 275 -97 295 11 12 67 -16 117 -178 315 -352 432 -946 1039 -1016 1039 -5
0 -45 -30 -88 -67z"/>
</g>
</svg>
